<svg id="calendar" xmlns="http://www.w3.org/2000/svg" width="512" height="512" viewBox="0 0 512 512">
  <path id="Path_2" data-name="Path 2" d="M376,120a30,30,0,0,1-30-30V30a30,30,0,0,1,60,0V90A30,30,0,0,1,376,120Z" fill="#ff7b00"/>
  <g id="Group_2" data-name="Group 2">
    <path id="Path_3" data-name="Path 3" d="M457,60H436V90a60,60,0,0,1-120,0V60H196V90A60,60,0,0,1,76,90V60H55A55.062,55.062,0,0,0,0,115v67H512V115A55.062,55.062,0,0,0,457,60Z" fill="#ff7b00"/>
  </g>
  <path id="Path_4" data-name="Path 4" d="M136,120a30,30,0,0,1-30-30V30a30,30,0,0,1,60,0V90A30,30,0,0,1,136,120Z" fill="#ff7b00"/>
  <path id="Path_5" data-name="Path 5" d="M0,212V457a55.062,55.062,0,0,0,55,55H457a55.062,55.062,0,0,0,55-55V212ZM271.764,407a60,60,0,0,1-119.423,8.35,60.675,60.675,0,0,1-.577-8.35,15,15,0,0,1,30,0,30.568,30.568,0,0,0,.29,4.2,30,30,0,1,0,29.71-34.2,15,15,0,1,1,0-30,30,30,0,1,0-29.437-35.831,15,15,0,1,1-29.437-5.782A60,60,0,1,1,251.387,362a59.86,59.86,0,0,1,20.377,45Zm88.472,45a15,15,0,0,1-30,0V287H306.763a15,15,0,0,1,0-30h38.473a15,15,0,0,1,15,15Z" fill="#ff7b00"/>
</svg>
