<svg xmlns="http://www.w3.org/2000/svg" width="477.872" height="477.88" viewBox="0 0 477.872 477.88">
  <g id="tag" transform="translate(-0.004)">
    <g id="Group_1" data-name="Group 1">
      <path id="Path_1" data-name="Path 1" d="M460.809,0H273.076A17.067,17.067,0,0,0,261.01,5L5.01,261A17.066,17.066,0,0,0,5,285.137l.013.013L192.743,472.883a17.067,17.067,0,0,0,24.132,0l256-256a17.069,17.069,0,0,0,5-12.083V17.067A17.067,17.067,0,0,0,460.809,0Zm-102.4,153.6a34.133,34.133,0,1,1,34.133-34.133A34.133,34.133,0,0,1,358.409,153.6Z" fill="#ff7b00"/>
    </g>
  </g>
</svg>
